<?xml version="1.0" encoding="UTF-8"?>
<svg id="Layer_2" data-name="Layer 2" xmlns="http://www.w3.org/2000/svg" viewBox="0 0 647.31 293.96">
  <defs>
    <style>
      .cls-1 {
        fill: #f7f4ef;
        stroke-width: 0px;
      }
    </style>
  </defs>
  <g id="Layer_1-2" data-name="Layer 1">
    <g>
      <path class="cls-1" d="m203.47,141.43c-9.78-25.05-28.72-43.43-54.78-53.19-28-10.48-60.06-7.53-88.1,8.1-.53-11.62-4.99-76.46-4.99-96.34H1.48c0,21.45,6.21,116.27,6.24,143.99.02,9.5-7.73,128.2-7.73,147.84h54.11c0-4.81.12-9.96.35-15.42,17.28,11.3,37.54,17.9,57.88,17.54,9.93-.18,19.88-2.01,29.52-5.77,55.37-21.66,82.87-92.3,61.62-146.75Zm-57.53,75.88c-10.22,17.9-28.56,26.89-48.62,20.18-13.05-4.37-24.63-13.42-31.29-25.47-19.04-34.45,13.51-76.53,48.27-76.27,16.08.12,30.7,9.89,37.87,24.24,9.05,18.13,3.32,40.55-6.24,57.32Z"/>
      <path class="cls-1" d="m347.72,54.22V.12c-50.37,0-88.13,24.45-101.01,65.4-7.42,23.59-2.21,44.6,1.94,55.73h-28.94v54.11h40.68v117.48h54.11v-122.36c9.71,1.89,20.72,2.97,33.21,2.97v-54.11c-11.5,0-39.49,3.69-47.62-15.18-.37-.86-5.18-11.58-1.78-22.41,7.53-23.95,34.18-27.52,49.39-27.52Z"/>
      <path class="cls-1" d="m527.98,211.89c-8.01-10.79-16.45-19.94-25.37-27.54.64-.73,40.01-45.27,45.85-102.2l-53.24-9.64c-5.62,31.01-16.41,56.17-32.09,74.79-4.58,5.44-9.64,10.26-15,14.45,2.84-17.93,3.36-35.18,3.77-49.36.41-14.08-.9-33.04-2.29-53.12-1.39-20.09-2.82-40.86-2.82-59.26h-54.11c0,20.27,1.57,42.97,2.95,62.99,1.29,18.72,2.51,36.39,2.18,47.83-.75,25.9-2.02,48.93-9.98,68.37-7.7,18.8-21.73,32.6-36.62,36.03l12.12,52.73c8.09-1.86,15.9-4.86,23.29-8.86,2.6,12.46,4.25,24.95,4.25,33.87h54.11c0-16.01-3.52-41.13-10.15-64.41,8.08-2.4,16.02-5.61,23.7-9.56,9.05,5.53,17.56,13.8,26.02,25.18,14.28,19.21,19.84,32.89,19.84,48.79h54.11c0-35.24-15.43-60.75-30.52-81.06Z"/>
      <path class="cls-1" d="m599.56,234.59h-18.28c0-26.37-21.38-47.75-47.75-47.75v-18.28c26.37,0,47.75-21.38,47.75-47.75h18.28c0,26.37,21.38,47.75,47.75,47.75v18.28c-26.37,0-47.75,21.38-47.75,47.75Z"/>
    </g>
  </g>
</svg>